# xmcd
#
# Track frame offsets:
#	150
#	12845
#	24084
#	37160
#	54961
#	82386
#	97905
#	111243
#	125440
#	141542
#	154453
#	184403
#	196187
#	209276
#	222537
#	235482
#
# Disc length: 3312 seconds
#
# Revision: 1
# Processed by: cddbd v1.5.1PL0 Copyright (c) Steve Scherf et al.
# Submitted via: audiograbber 1.82.02
#
DISCID=ed0cee10
DTITLE=Various Artist - The Greatest Blues Album of All Time
DYEAR=1900
DGENRE=Blues
TTITLE0=Jimmy Reed - High and Lonesome
TTITLE1=John Lee Hooker - Boom Boom
TTITLE2=Elmore James - Dust My Broom
TTITLE3=Lightnin' Hopkins - Found My Baby Crying
TTITLE4=John Mayall's Bluesbreakers - Life in the Jungle
TTITLE5=Bessie Smith - Down Hearted Blues
TTITLE6=Magic Sam - All Your Love
TTITLE7=Strange Fruit - Billie Holiday
TTITLE8=The Southern Blues - Big Bill Broonzy
TTITLE9=Robert Johnson - Preaching Blues (Up Jumped the Devil)
TTITLE10=Albert King - I'll Play the Blues for You
TTITLE11=Howlin' Wolf - Baby Ride with Me
TTITLE12=John Lee Hooker - Don't Look Back
TTITLE13=Louisiana Red - First Degree
TTITLE14=Brownie McGinee - The Blues Had a Baby
TTITLE15=I'll Change My Style - Jimmy Reed
EXTD=
EXTT0=
EXTT1=
EXTT2=
EXTT3=
EXTT4=
EXTT5=
EXTT6=
EXTT7=
EXTT8=
EXTT9=
EXTT10=
EXTT11=
EXTT12=
EXTT13=
EXTT14=
EXTT15=
PLAYORDER=
